<svg xmlns="http://www.w3.org/2000/svg" xmlns:xlink="http://www.w3.org/1999/xlink" width="168.884" height="43.495" viewBox="0 0 168.884 43.495">
  <defs>
    <clipPath id="clip-path">
      <rect id="Rectangle_4" data-name="Rectangle 4" width="48.212" height="41.115" fill="none"/>
    </clipPath>
    <clipPath id="clip-path-2">
      <rect id="Rectangle_9" data-name="Rectangle 9" width="168.884" height="43.495" fill="none"/>
    </clipPath>
  </defs>
  <g id="Group_5" data-name="Group 5" transform="translate(0 0)">
    <g id="Group_2" data-name="Group 2" transform="translate(120.671 1.505)">
      <g id="Group_1" data-name="Group 1" clip-path="url(#clip-path)">
        <path id="Path_1" data-name="Path 1" d="M175.71,5.544a1.085,1.085,0,0,0,.811-.323,1.1,1.1,0,0,0,.315-.8,1.078,1.078,0,0,0-.315-.8,1.1,1.1,0,0,0-.811-.315,1.084,1.084,0,0,0-.788.315,1.063,1.063,0,0,0-.323.8,1.087,1.087,0,0,0,.323.8,1.072,1.072,0,0,0,.788.323" transform="translate(-158.786 -2.227)" fill="#025d4d"/>
        <path id="Path_2" data-name="Path 2" d="M200.072,11.994a5.13,5.13,0,0,1-1.576-.2,1.794,1.794,0,0,1-.908-.593,1.5,1.5,0,0,1-.293-.93,1.72,1.72,0,0,1,.721-1.434,3.342,3.342,0,0,1,2.056-.548,9.219,9.219,0,0,1,1.951.24L202.8,6.8a6.358,6.358,0,0,0-1.336-.42,7.051,7.051,0,0,0-1.411-.15,5.882,5.882,0,0,0-1.719.248,4.459,4.459,0,0,0-1.456.743,3.547,3.547,0,0,0-1.006,1.238,3.826,3.826,0,0,0-.367,1.719,3,3,0,0,0,.526,1.816H176.1V8.088l-1.785.6v5.917a1.892,1.892,0,0,1-.188.893,1.065,1.065,0,0,1-.6.5,3.233,3.233,0,0,1-1.075.15h-.12l.33,1.981a3.965,3.965,0,0,0,1.846-.457,2.92,2.92,0,0,0,1.178-1.209,3.922,3.922,0,0,0,.413-1.861v-.555h26.959V11.994Z" transform="translate(-158.291 -2.865)" fill="#025d4d"/>
        <path id="Path_3" data-name="Path 3" d="M159.194,46.343c.018,0,.03.013.038.038a.39.39,0,0,1,.011.1.4.4,0,0,1-.011.1c-.008.026-.02.039-.038.039h-.1a.624.624,0,0,1-.278-.054.309.309,0,0,1-.081-.054.839.839,0,0,1-.1.02,1.373,1.373,0,0,1-.2.015,1.05,1.05,0,0,1-.277-.034.664.664,0,0,1-.22-.1.453.453,0,0,1-.145-.165.48.48,0,0,1-.053-.231.5.5,0,0,1,.067-.262.611.611,0,0,1,.188-.195,1.108,1.108,0,0,1,.282-.132,2.044,2.044,0,0,1,.332-.068v-.069h.246v.845a.361.361,0,0,0,.017.127.1.1,0,0,0,.07.059.553.553,0,0,0,.155.016Zm-.772-.664a1.206,1.206,0,0,0-.217.076.493.493,0,0,0-.161.113.218.218,0,0,0-.061.153.183.183,0,0,0,.061.141.37.37,0,0,0,.163.082.927.927,0,0,0,.225.026,1.1,1.1,0,0,0,.174-.013l.007,0a.891.891,0,0,1-.007-.115v-.5c-.06.009-.122.02-.184.034m-.254-.65a.147.147,0,0,1-.149-.149.143.143,0,0,1,.043-.108.146.146,0,0,1,.106-.041.148.148,0,0,1,.106.041.142.142,0,0,1,.043.108.141.141,0,0,1-.043.106.143.143,0,0,1-.106.043m.347,0a.151.151,0,0,1-.106-.256.157.157,0,0,1,.213,0,.145.145,0,0,1,.042.108.146.146,0,0,1-.149.149" transform="translate(-155.105 -11.27)" fill="#bd914b"/>
        <path id="Path_4" data-name="Path 4" d="M159.588,46.824c-.018,0-.03-.013-.038-.039a.413.413,0,0,1-.011-.1.369.369,0,0,1,.011-.1c.008-.025.02-.037.038-.037a.375.375,0,0,0,.2-.047.467.467,0,0,0,.138-.127,1.632,1.632,0,0,0,.116-.181c.038-.065.077-.13.12-.193a1.22,1.22,0,0,1,.139-.174.652.652,0,0,1,.168-.126.46.46,0,0,1,.21-.047.424.424,0,0,1,.221.055.433.433,0,0,1,.148.146.692.692,0,0,1,.081.2,1.014,1.014,0,0,1,.026.227,1.349,1.349,0,0,1-.034.281,1.04,1.04,0,0,1-.112.295c-.064,0-.124,0-.181,0a2.31,2.31,0,0,1-.235-.013,1.09,1.09,0,0,1-.247-.053.854.854,0,0,1-.213-.108.65.65,0,0,1-.085-.063.628.628,0,0,1-.188.144.609.609,0,0,1-.266.054m1.287-.315a.9.9,0,0,0,.03-.227.47.47,0,0,0-.059-.267.192.192,0,0,0-.17-.085.264.264,0,0,0-.133.035.462.462,0,0,0-.131.122,2.235,2.235,0,0,0-.162.243c-.016.027-.032.055-.048.081a.634.634,0,0,0,.134.083.815.815,0,0,0,.274.076,2.059,2.059,0,0,0,.244.013c.008-.025.016-.049.022-.073" transform="translate(-155.498 -11.47)" fill="#bd914b"/>
        <path id="Path_5" data-name="Path 5" d="M162.038,46.593V44.688l.247-.1v1.722h.29c.018,0,.03.013.038.038a.391.391,0,0,1,.011.1.4.4,0,0,1-.011.1c-.008.027-.02.039-.038.039Z" transform="translate(-156.044 -11.239)" fill="#bd914b"/>
        <path id="Path_6" data-name="Path 6" d="M164.536,46.52q.027,0,.038.038a.362.362,0,0,1,.011.1.368.368,0,0,1-.011.1c-.007.026-.02.039-.038.039h-.51a1.216,1.216,0,0,1-.476-.09,1.565,1.565,0,0,1-.2.061,1.067,1.067,0,0,1-.232.029h-.406c-.018,0-.03-.013-.038-.039a.412.412,0,0,1-.011-.1.372.372,0,0,1,.011-.1c.007-.025.02-.037.038-.037h.406a.727.727,0,0,0,.115-.009,1.037,1.037,0,0,1-.093-.1,1.108,1.108,0,0,1-.224-.427v-.328c.211-.041.356-.069.435-.085a1.27,1.27,0,0,1,.261-.025,1.135,1.135,0,0,1,.371.056.593.593,0,0,1,.248.152.332.332,0,0,1,.089.232.421.421,0,0,1-.06.213.8.8,0,0,1-.159.195,1.472,1.472,0,0,1-.162.124l.088,0Zm-.923-.137a1.706,1.706,0,0,0,.23-.13,1.008,1.008,0,0,0,.167-.136.186.186,0,0,0,.062-.115.108.108,0,0,0-.059-.086.515.515,0,0,0-.163-.064,1.022,1.022,0,0,0-.242-.026,1.135,1.135,0,0,0-.217.02,1.55,1.55,0,0,0-.22.059l-.019.024a.777.777,0,0,0,.139.271.807.807,0,0,0,.259.213l.063-.03" transform="translate(-156.18 -11.447)" fill="#bd914b"/>
        <path id="Path_7" data-name="Path 7" d="M165.045,46.593c-.018,0-.03-.013-.038-.039a.38.38,0,0,1-.011-.1.34.34,0,0,1,.011-.1c.007-.024.02-.037.038-.037h.317V44.688l.247-.1v2Z" transform="translate(-156.69 -11.239)" fill="#bd914b"/>
        <path id="Path_8" data-name="Path 8" d="M166.218,46.592V44.687l.247-.1v2Z" transform="translate(-156.956 -11.239)" fill="#bd914b"/>
        <path id="Path_9" data-name="Path 9" d="M168.5,46.724a.873.873,0,0,1-.318-.052.607.607,0,0,1-.224-.142.579.579,0,0,1-.131-.206.671.671,0,0,1-.043-.239.843.843,0,0,1,.137-.457l.2.09a.927.927,0,0,0-.07.184.658.658,0,0,0-.022.163.38.38,0,0,0,.053.209.328.328,0,0,0,.159.127.674.674,0,0,0,.256.043h.938v-.8l.246-.1v1.176Zm.061-1.233a.151.151,0,0,1-.106-.256.156.156,0,0,1,.212,0,.15.15,0,0,1-.106.256m.347,0a.151.151,0,0,1-.106-.256.157.157,0,0,1,.213,0,.15.15,0,0,1-.106.256" transform="translate(-157.298 -11.371)" fill="#bd914b"/>
        <path id="Path_10" data-name="Path 10" d="M170.682,46.592V44.687l.247-.1v2Z" transform="translate(-157.931 -11.239)" fill="#bd914b"/>
        <path id="Path_11" data-name="Path 11" d="M171.247,47.2h.02a.505.505,0,0,0,.172-.024.175.175,0,0,0,.1-.086.336.336,0,0,0,.031-.156V45.744l.247-.1v1.29a.608.608,0,0,1-.063.288.441.441,0,0,1-.18.183.594.594,0,0,1-.28.066Z" transform="translate(-158.054 -11.469)" fill="#bd914b"/>
        <path id="Path_12" data-name="Path 12" d="M172.412,46.593V44.688l.247-.1v1.722h.29c.018,0,.03.013.038.038a.39.39,0,0,1,.011.1.4.4,0,0,1-.011.1c-.008.027-.02.039-.038.039Z" transform="translate(-158.309 -11.239)" fill="#bd914b"/>
        <path id="Path_13" data-name="Path 13" d="M173.086,46.824c-.018,0-.03-.013-.038-.039a.413.413,0,0,1-.011-.1.369.369,0,0,1,.011-.1c.008-.025.02-.037.038-.037a.375.375,0,0,0,.2-.047.467.467,0,0,0,.138-.127,1.637,1.637,0,0,0,.116-.181c.038-.065.077-.13.12-.193a1.22,1.22,0,0,1,.139-.174.652.652,0,0,1,.168-.126.46.46,0,0,1,.21-.047.424.424,0,0,1,.221.055.433.433,0,0,1,.148.146.692.692,0,0,1,.081.2,1.014,1.014,0,0,1,.026.227v.058a.362.362,0,0,0,.017.127.1.1,0,0,0,.07.059.553.553,0,0,0,.155.016h.1c.018,0,.03.013.038.038a.394.394,0,0,1,.011.1.4.4,0,0,1-.011.1c-.008.026-.02.039-.038.039h-.1a.558.558,0,0,1-.261-.054.24.24,0,0,1-.063-.041,1.1,1.1,0,0,1-.063.13c-.064,0-.124,0-.181,0a2.31,2.31,0,0,1-.235-.013,1.09,1.09,0,0,1-.247-.053.854.854,0,0,1-.213-.108.65.65,0,0,1-.085-.063.628.628,0,0,1-.188.144.608.608,0,0,1-.266.054m1.287-.315a.9.9,0,0,0,.03-.227.47.47,0,0,0-.059-.267.192.192,0,0,0-.17-.085.264.264,0,0,0-.133.035.461.461,0,0,0-.131.122,2.235,2.235,0,0,0-.162.243c-.016.027-.032.055-.048.081a.634.634,0,0,0,.134.083.815.815,0,0,0,.274.076,2.059,2.059,0,0,0,.244.013c.008-.025.016-.049.022-.073" transform="translate(-158.445 -11.47)" fill="#bd914b"/>
        <path id="Path_14" data-name="Path 14" d="M176.478,46.292q.027,0,.038.038a.39.39,0,0,1,.011.1.405.405,0,0,1-.011.1c-.007.026-.02.039-.038.039h-.1a.625.625,0,0,1-.279-.054.306.306,0,0,1-.085-.059.33.33,0,0,1-.088.059.623.623,0,0,1-.278.054h-.125c-.018,0-.03-.013-.038-.039a.417.417,0,0,1-.011-.1.379.379,0,0,1,.011-.1c.007-.024.02-.036.038-.036h.125a.554.554,0,0,0,.156-.016.1.1,0,0,0,.068-.059.381.381,0,0,0,.017-.127v-.6l.246-.1v.693a.381.381,0,0,0,.017.127.1.1,0,0,0,.07.059.555.555,0,0,0,.156.016ZM175.84,44.8a.151.151,0,0,1,.106.256.156.156,0,0,1-.212,0,.143.143,0,0,1-.043-.108.147.147,0,0,1,.149-.149m.174-.3a.146.146,0,0,1,.149.149.142.142,0,0,1-.043.108.155.155,0,0,1-.211,0,.153.153,0,0,1,0-.214.145.145,0,0,1,.1-.042m.174.3a.151.151,0,0,1,.106.256.157.157,0,0,1-.213,0,.145.145,0,0,1-.042-.108.146.146,0,0,1,.149-.149" transform="translate(-158.977 -11.219)" fill="#bd914b"/>
        <path id="Path_15" data-name="Path 15" d="M177.7,46.376q.027,0,.038.038a.39.39,0,0,1,.011.1.4.4,0,0,1-.011.1c-.007.026-.02.039-.038.039h-.1a.625.625,0,0,1-.279-.054.307.307,0,0,1-.085-.059.33.33,0,0,1-.088.059.623.623,0,0,1-.278.054h-.125c-.018,0-.03-.013-.038-.039a.415.415,0,0,1-.011-.106.377.377,0,0,1,.011-.1c.007-.024.02-.036.038-.036h.125a.554.554,0,0,0,.156-.016.1.1,0,0,0,.068-.059.38.38,0,0,0,.017-.127v-.6l.246-.1v.693a.381.381,0,0,0,.017.127.1.1,0,0,0,.07.059.555.555,0,0,0,.156.016Zm-.638-1.194a.147.147,0,0,1-.149-.149.143.143,0,0,1,.043-.108.156.156,0,0,1,.212,0,.142.142,0,0,1,.043.108.147.147,0,0,1-.149.149m.347,0a.151.151,0,0,1-.106-.256.157.157,0,0,1,.213,0,.145.145,0,0,1,.042.108.146.146,0,0,1-.149.149" transform="translate(-159.243 -11.303)" fill="#bd914b"/>
        <path id="Path_16" data-name="Path 16" d="M178.805,46.823a.434.434,0,0,1-.157-.03.371.371,0,0,1-.14-.095.092.092,0,0,1-.022-.024.339.339,0,0,1-.12.095.627.627,0,0,1-.279.054h-.122c-.019,0-.031-.013-.038-.039a.419.419,0,0,1-.01-.1.375.375,0,0,1,.01-.1c.007-.024.02-.037.038-.037h.122a.547.547,0,0,0,.156-.016.1.1,0,0,0,.069-.059.359.359,0,0,0,.017-.127v-.353l.245-.1v.451a.775.775,0,0,1,0,.086.2.2,0,0,0,.081.1.228.228,0,0,0,.12.034.215.215,0,0,0,.141-.053.2.2,0,0,0,.064-.163v-.476l.246-.1v.574a.7.7,0,0,1,0,.084.178.178,0,0,0,.081.1.228.228,0,0,0,.12.034.215.215,0,0,0,.141-.053.2.2,0,0,0,.064-.163v-.6l.246-.1v.693a.542.542,0,0,1-.061.271.406.406,0,0,1-.156.16.4.4,0,0,1-.2.052.439.439,0,0,1-.158-.03.377.377,0,0,1-.14-.095c-.01-.01-.02-.02-.03-.032a.372.372,0,0,1-.12.1.4.4,0,0,1-.2.054" transform="translate(-159.51 -11.469)" fill="#bd914b"/>
        <path id="Path_17" data-name="Path 17" d="M180.853,46.592v-.281h.344v-1.1l.247-.1v1.194h.464V44.687l.247-.1v2Z" transform="translate(-160.151 -11.239)" fill="#bd914b"/>
        <path id="Path_18" data-name="Path 18" d="M183.018,46.592V44.687l.246-.1v2Z" transform="translate(-160.624 -11.239)" fill="#bd914b"/>
        <path id="Path_19" data-name="Path 19" d="M185.936,46.635a.634.634,0,0,1-.331-.084.587.587,0,0,1-.219-.223.623.623,0,0,1-.078-.309.655.655,0,0,1,.048-.253.612.612,0,0,1,.138-.2.626.626,0,0,1,.2-.135.619.619,0,0,1,.246-.049.782.782,0,0,1,.252.041,1.459,1.459,0,0,1,.217.089v.8a1.231,1.231,0,0,1-.063.4.993.993,0,0,1-.184.327.847.847,0,0,1-.293.218.922.922,0,0,1-.387.078.932.932,0,0,1-.389-.078.843.843,0,0,1-.294-.218,1,1,0,0,1-.185-.327,1.191,1.191,0,0,1-.065-.4,1.323,1.323,0,0,1,.016-.206,1.711,1.711,0,0,1,.043-.2l.234.047a1.7,1.7,0,0,0-.035.184,1.445,1.445,0,0,0-.011.17.854.854,0,0,0,.088.4.628.628,0,0,0,.243.257.739.739,0,0,0,.707,0,.625.625,0,0,0,.242-.256c.012-.023.022-.046.032-.07Zm.229-.328V45.7a.668.668,0,0,0-.222-.042.413.413,0,0,0-.2.048.373.373,0,0,0-.139.128.333.333,0,0,0-.051.184.314.314,0,0,0,.048.173.322.322,0,0,0,.133.119.447.447,0,0,0,.2.043h.229Zm-.4-1.226a.151.151,0,0,1-.106-.256.146.146,0,0,1,.106-.041.147.147,0,0,1,.106.041.15.15,0,0,1-.106.256m.347,0a.151.151,0,0,1-.106-.256.157.157,0,0,1,.213,0,.15.15,0,0,1-.106.256" transform="translate(-160.959 -11.281)" fill="#bd914b"/>
        <path id="Path_20" data-name="Path 20" d="M187.342,47.45V47.17h.476a.315.315,0,0,0,.217-.061.255.255,0,0,0,.066-.2V46.8h-.229a.638.638,0,0,1-.331-.083.591.591,0,0,1-.218-.223.624.624,0,0,1-.078-.31.654.654,0,0,1,.048-.252.622.622,0,0,1,.137-.2.653.653,0,0,1,.2-.136.626.626,0,0,1,.246-.048.807.807,0,0,1,.252.04,1.648,1.648,0,0,1,.217.089v1.238a.611.611,0,0,1-.065.292.428.428,0,0,1-.183.184.6.6,0,0,1-.282.062Zm.537-1.624a.4.4,0,0,0-.2.048.373.373,0,0,0-.139.128.333.333,0,0,0-.052.183.323.323,0,0,0,.048.174.33.33,0,0,0,.134.119.444.444,0,0,0,.2.042h.229v-.652a.69.69,0,0,0-.222-.041" transform="translate(-161.546 -11.448)" fill="#bd914b"/>
        <path id="Path_21" data-name="Path 21" d="M188.969,46.8v-.281h.928a.982.982,0,0,0-.062-.186.9.9,0,0,0-.257-.342.96.96,0,0,0-.4-.191l.056-.273a1.163,1.163,0,0,1,.5.242,1.214,1.214,0,0,1,.327.439,1.357,1.357,0,0,1,.092.31h.22q.027,0,.038.038a.358.358,0,0,1,.011.1.368.368,0,0,1-.011.1c-.007.027-.02.039-.038.039Z" transform="translate(-161.923 -11.443)" fill="#bd914b"/>
        <path id="Path_22" data-name="Path 22" d="M191.7,46.359c.018,0,.031.013.038.038a.391.391,0,0,1,.012.1.4.4,0,0,1-.012.1c-.007.027-.02.039-.038.039h-.1a.627.627,0,0,1-.279-.054.288.288,0,0,1-.085-.058.3.3,0,0,1-.088.058.615.615,0,0,1-.277.054h-.125c-.018,0-.03-.013-.037-.039a.348.348,0,0,1-.012-.1.315.315,0,0,1,.012-.1c.006-.024.019-.037.037-.037h.125a.581.581,0,0,0,.156-.016.1.1,0,0,0,.069-.06.372.372,0,0,0,.017-.127v-.6l.247-.1v.693a.357.357,0,0,0,.016.127.1.1,0,0,0,.07.06.6.6,0,0,0,.156.016Zm-.464-1.223a.153.153,0,0,1-.115-.048.158.158,0,0,1-.048-.116.163.163,0,0,1,.163-.164.159.159,0,0,1,.163.164.162.162,0,0,1-.046.116.157.157,0,0,1-.117.048" transform="translate(-162.301 -11.286)" fill="#bd914b"/>
        <path id="Path_23" data-name="Path 23" d="M192.824,46.776a.621.621,0,0,1-.278-.054.27.27,0,0,1-.085-.058.314.314,0,0,1-.088.058.619.619,0,0,1-.278.054h-.124c-.018,0-.03-.013-.038-.039a.412.412,0,0,1-.011-.1.372.372,0,0,1,.011-.1c.008-.024.02-.037.038-.037h.124a.587.587,0,0,0,.156-.016.1.1,0,0,0,.068-.06.354.354,0,0,0,.017-.127v-.476l.247-.1v.574a.354.354,0,0,0,.017.127.1.1,0,0,0,.029.041,1.05,1.05,0,0,1,.015-.1,1.436,1.436,0,0,1,.059-.252,1.3,1.3,0,0,1,.109-.249.955.955,0,0,1,.168-.215.732.732,0,0,1,.233-.152.779.779,0,0,1,.3-.056.733.733,0,0,1,.31.061.59.59,0,0,1,.217.169.712.712,0,0,1,.127.245.989.989,0,0,1,.042.292v.576Zm1.143-.281v-.3a.61.61,0,0,0-.052-.266.358.358,0,0,0-.151-.164.5.5,0,0,0-.247-.056.576.576,0,0,0-.222.042.6.6,0,0,0-.185.117.682.682,0,0,0-.142.183.954.954,0,0,0-.09.239,1.245,1.245,0,0,0-.03.2Z" transform="translate(-162.567 -11.423)" fill="#bd914b"/>
        <path id="Path_24" data-name="Path 24" d="M196.674,47.688a.8.8,0,0,1-.245-.037.7.7,0,0,1-.215-.109.533.533,0,0,1-.15-.176.507.507,0,0,1-.054-.238.577.577,0,0,1,.185-.428.691.691,0,0,1,.232-.141.933.933,0,0,1,.325-.052h.431V46.15a.339.339,0,0,0-.057-.2.382.382,0,0,0-.166-.132.617.617,0,0,0-.256-.048,1.019,1.019,0,0,0-.229.027.984.984,0,0,0-.194.066l-.1-.222a.941.941,0,0,1,.254-.114,1.007,1.007,0,0,1,.273-.038.836.836,0,0,1,.29.048.657.657,0,0,1,.229.135.61.61,0,0,1,.149.209.655.655,0,0,1,.052.265v.359h.291c.019,0,.03.013.038.038a.326.326,0,0,1,.012.1.342.342,0,0,1-.012.1c-.007.026-.019.039-.038.039h-.969a.705.705,0,0,0-.263.045.428.428,0,0,0-.172.12.255.255,0,0,0-.061.165.23.23,0,0,0,.052.15.342.342,0,0,0,.147.1.621.621,0,0,0,.22.037.9.9,0,0,0,.137-.011.981.981,0,0,0,.13-.03l.085.244a.819.819,0,0,1-.173.059.829.829,0,0,1-.182.02m.5-.417a.154.154,0,0,1-.115-.048.157.157,0,0,1-.048-.116.154.154,0,0,1,.048-.117.156.156,0,0,1,.115-.047.159.159,0,0,1,.163.164.162.162,0,0,1-.046.116.156.156,0,0,1-.117.048" transform="translate(-163.46 -11.436)" fill="#bd914b"/>
        <path id="Path_25" data-name="Path 25" d="M198.186,46.824c-.018,0-.03-.013-.038-.039a.412.412,0,0,1-.011-.1.368.368,0,0,1,.011-.1c.008-.025.02-.037.038-.037a.375.375,0,0,0,.2-.047.467.467,0,0,0,.138-.127,1.637,1.637,0,0,0,.116-.181c.038-.065.077-.13.12-.193a1.282,1.282,0,0,1,.14-.174.652.652,0,0,1,.168-.126.46.46,0,0,1,.21-.047.424.424,0,0,1,.221.055.433.433,0,0,1,.148.146.693.693,0,0,1,.081.2,1.016,1.016,0,0,1,.026.227,1.348,1.348,0,0,1-.034.281,1.04,1.04,0,0,1-.112.295c-.064,0-.124,0-.181,0a2.31,2.31,0,0,1-.235-.013,1.081,1.081,0,0,1-.247-.053.854.854,0,0,1-.213-.108.707.707,0,0,1-.085-.063.627.627,0,0,1-.188.144.609.609,0,0,1-.266.054m1.287-.315a.9.9,0,0,0,.029-.227.471.471,0,0,0-.059-.267.192.192,0,0,0-.17-.085.264.264,0,0,0-.133.035.462.462,0,0,0-.131.122,2.24,2.24,0,0,0-.162.243c-.016.027-.032.055-.048.081a.634.634,0,0,0,.134.083.815.815,0,0,0,.274.076,2.059,2.059,0,0,0,.244.013c.008-.025.016-.049.022-.073" transform="translate(-163.924 -11.47)" fill="#bd914b"/>
        <path id="Path_26" data-name="Path 26" d="M200.636,46.592V44.687l.247-.1v2Z" transform="translate(-164.47 -11.239)" fill="#bd914b"/>
        <path id="Path_27" data-name="Path 27" d="M202.061,46.542q.027,0,.038.038a.363.363,0,0,1,.011.1.369.369,0,0,1-.011.1c-.007.027-.02.039-.038.039h-.291v.113a.612.612,0,0,1-.063.288.436.436,0,0,1-.18.183.591.591,0,0,1-.279.066L201.2,47.2h.019a.513.513,0,0,0,.173-.024.174.174,0,0,0,.1-.085.339.339,0,0,0,.032-.156V45.744l.246-.1v.9Z" transform="translate(-164.593 -11.469)" fill="#bd914b"/>
        <path id="Path_28" data-name="Path 28" d="M202.629,45.744l.247-.1v1.177h-.589c-.018,0-.03-.013-.038-.039a.38.38,0,0,1-.011-.1.35.35,0,0,1,.011-.1c.007-.024.02-.036.038-.036h.342Zm.03,1.734a.165.165,0,0,1-.116-.281.163.163,0,0,1,.279.117.162.162,0,0,1-.046.116.157.157,0,0,1-.117.048" transform="translate(-164.82 -11.469)" fill="#bd914b"/>
        <path id="Path_29" data-name="Path 29" d="M205.284,47.489a1.536,1.536,0,0,1-.559-.091.75.75,0,0,1-.359-.273.763.763,0,0,1-.125-.446,1.252,1.252,0,0,1,.011-.16c.008-.054.017-.112.03-.172l.232.046c-.01.061-.016.113-.021.156s-.005.081-.005.113a.466.466,0,0,0,.2.41,1.04,1.04,0,0,0,.589.137,1.7,1.7,0,0,0,.4-.043.725.725,0,0,0,.262-.113.2.2,0,0,0,.093-.154.11.11,0,0,0-.02-.065.188.188,0,0,0-.066-.052,1.159,1.159,0,0,0-.121-.052l-.185-.067c-.078-.027-.152-.056-.22-.087a.877.877,0,0,1-.182-.106.444.444,0,0,1-.124-.15.473.473,0,0,1-.045-.213.518.518,0,0,1,.043-.217.466.466,0,0,1,.118-.163.521.521,0,0,1,.18-.1.706.706,0,0,1,.228-.036.975.975,0,0,1,.321.057,1.3,1.3,0,0,1,.321.163l-.14.232a.917.917,0,0,0-.273-.134.893.893,0,0,0-.234-.038.428.428,0,0,0-.224.056.183.183,0,0,0-.094.168.187.187,0,0,0,.033.11.3.3,0,0,0,.089.081.671.671,0,0,0,.128.059l.15.053c.066.021.134.045.2.07a.872.872,0,0,1,.182.1.446.446,0,0,1,.131.138.386.386,0,0,1,.049.2.435.435,0,0,1-.052.213.521.521,0,0,1-.143.165.79.79,0,0,1-.216.117,1.346,1.346,0,0,1-.274.07,2.007,2.007,0,0,1-.313.023" transform="translate(-165.257 -11.456)" fill="#bd914b"/>
        <path id="Path_30" data-name="Path 30" d="M207.165,46.8v-.281h.928a1.037,1.037,0,0,0-.061-.186.9.9,0,0,0-.258-.342.955.955,0,0,0-.4-.191l.056-.273a1.159,1.159,0,0,1,.5.242,1.214,1.214,0,0,1,.327.439,1.4,1.4,0,0,1,.093.31h.22q.027,0,.038.038a.359.359,0,0,1,.011.1.368.368,0,0,1-.011.1c-.007.027-.02.039-.038.039Z" transform="translate(-165.895 -11.443)" fill="#bd914b"/>
        <path id="Path_31" data-name="Path 31" d="M208.944,46.79c-.018,0-.03-.013-.038-.039a.379.379,0,0,1-.011-.1.339.339,0,0,1,.011-.1c.007-.024.02-.037.038-.037h1.077V46.15a.342.342,0,0,0-.058-.2.38.38,0,0,0-.165-.132.636.636,0,0,0-.256-.048.965.965,0,0,0-.228.027,1.04,1.04,0,0,0-.194.066l-.1-.222a.936.936,0,0,1,.254-.113.98.98,0,0,1,.274-.038.858.858,0,0,1,.29.048.674.674,0,0,1,.228.136.6.6,0,0,1,.149.209.654.654,0,0,1,.052.265v.359h.108l-.045.281Z" transform="translate(-166.273 -11.436)" fill="#bd914b"/>
        <path id="Path_32" data-name="Path 32" d="M211.016,47.264v-.171h.059a.2.2,0,0,1-.015-.075.181.181,0,0,1,.039-.117.256.256,0,0,1,.1-.076.345.345,0,0,1,.137-.027.4.4,0,0,1,.086.01.366.366,0,0,1,.082.029l-.063.139a.327.327,0,0,0-.045-.007l-.045,0a.238.238,0,0,0-.107.02c-.027.013-.039.027-.039.044s.013.031.039.044a.238.238,0,0,0,.107.02h.181v.171Zm.134-.671V44.688l.247-.1v2Z" transform="translate(-166.736 -11.239)" fill="#bd914b"/>
        <path id="Path_33" data-name="Path 33" d="M171.36,50.048h.3l.771,1.763h-.317l-.171-.408h-.675l.1-.252h.468l-.337-.8-.612,1.463h-.31Z" transform="translate(-157.909 -12.43)" fill="#bd914b"/>
        <path id="Path_34" data-name="Path 34" d="M175.147,50.048a.766.766,0,0,1,.515.158.551.551,0,0,1,.183.442.589.589,0,0,1-.183.462.74.74,0,0,1-.515.165h-.406v.537h-.3V50.048Zm-.013.972a.492.492,0,0,0,.315-.089.334.334,0,0,0,.11-.276.317.317,0,0,0-.11-.266.5.5,0,0,0-.315-.087h-.393v.718Z" transform="translate(-158.752 -12.43)" fill="#bd914b"/>
        <rect id="Rectangle_1" data-name="Rectangle 1" width="0.297" height="1.763" transform="translate(17.512 37.618)" fill="#bd914b"/>
        <path id="Path_35" data-name="Path 35" d="M177.908,50.048h1.184l-.078.254H178.2v.524h.8l-.076.252H178.2v.732h-.3Z" transform="translate(-159.508 -12.43)" fill="#bd914b"/>
        <path id="Path_36" data-name="Path 36" d="M181.655,50.048a.766.766,0,0,1,.515.158.551.551,0,0,1,.183.442.589.589,0,0,1-.183.462.74.74,0,0,1-.515.165h-.406v.537h-.3V50.048Zm-.013.972a.492.492,0,0,0,.315-.089.335.335,0,0,0,.111-.276.318.318,0,0,0-.111-.266.5.5,0,0,0-.315-.087h-.393v.718Z" transform="translate(-160.173 -12.43)" fill="#bd914b"/>
        <path id="Path_37" data-name="Path 37" d="M184,50.048a.789.789,0,0,1,.525.158.551.551,0,0,1,.185.442.565.565,0,0,1-.368.572l.4.592H184.4l-.324-.539-.078,0h-.418v.537h-.3V50.048Zm0,.972a.5.5,0,0,0,.316-.089.331.331,0,0,0,.113-.276.314.314,0,0,0-.113-.266A.5.5,0,0,0,184,50.3h-.418v.718Z" transform="translate(-160.681 -12.43)" fill="#bd914b"/>
        <path id="Path_38" data-name="Path 38" d="M186.519,50.026a.98.98,0,0,1,.367.068.919.919,0,0,1,.3.192.906.906,0,0,1,.2.285.866.866,0,0,1,.072.352.876.876,0,0,1-.072.353.893.893,0,0,1-.2.288.924.924,0,0,1-.3.193,1.011,1.011,0,0,1-.733,0,.907.907,0,0,1-.3-.193.9.9,0,0,1-.2-.288.911.911,0,0,1,0-.706.886.886,0,0,1,.2-.286.912.912,0,0,1,.3-.19.977.977,0,0,1,.367-.068m0,.252a.615.615,0,0,0-.245.049.641.641,0,0,0-.2.138.632.632,0,0,0-.137.2.648.648,0,0,0-.049.253.648.648,0,0,0,.189.462.648.648,0,0,0,.2.14.616.616,0,0,0,.486,0,.629.629,0,0,0,.2-.14.666.666,0,0,0,.134-.208.654.654,0,0,0,.049-.254.651.651,0,0,0-.184-.458.614.614,0,0,0-.443-.187" transform="translate(-161.184 -12.426)" fill="#bd914b"/>
        <path id="Path_39" data-name="Path 39" d="M189.617,50.945h.26v.65a1.043,1.043,0,0,1-.2.121,1.256,1.256,0,0,1-.238.082,1.093,1.093,0,0,1-.244.029.945.945,0,0,1-.364-.07.924.924,0,0,1-.295-.192.884.884,0,0,1-.268-.643.859.859,0,0,1,.072-.351.88.88,0,0,1,.2-.286.912.912,0,0,1,.3-.192,1,1,0,0,1,.371-.068,1.031,1.031,0,0,1,.249.03,1.129,1.129,0,0,1,.232.085.865.865,0,0,1,.2.134l-.169.2a.757.757,0,0,0-.235-.15.732.732,0,0,0-.274-.054.637.637,0,0,0-.252.05.67.67,0,0,0-.2.139.634.634,0,0,0-.138.2.688.688,0,0,0,0,.507.648.648,0,0,0,.138.208.634.634,0,0,0,.458.19.725.725,0,0,0,.257-.05,1,1,0,0,0,.149-.073Z" transform="translate(-161.769 -12.426)" fill="#bd914b"/>
        <path id="Path_40" data-name="Path 40" d="M191.741,50.048a.789.789,0,0,1,.525.158.548.548,0,0,1,.185.442.565.565,0,0,1-.368.572l.4.592h-.338l-.324-.539-.078,0h-.418v.537h-.3V50.048Zm0,.972a.5.5,0,0,0,.316-.089.331.331,0,0,0,.113-.276.314.314,0,0,0-.113-.266.5.5,0,0,0-.316-.087h-.418v.718Z" transform="translate(-162.372 -12.43)" fill="#bd914b"/>
        <path id="Path_41" data-name="Path 41" d="M194,50.048h.3l.771,1.763h-.317l-.171-.408h-.675l.1-.252h.468l-.337-.8-.612,1.463h-.31Z" transform="translate(-162.852 -12.43)" fill="#bd914b"/>
        <path id="Path_42" data-name="Path 42" d="M196.055,50.048h.345l.61,1.2.6-1.2h.346v1.763h-.275l0-1.348-.579,1.164h-.188l-.585-1.164v1.348h-.274Z" transform="translate(-163.47 -12.43)" fill="#bd914b"/>
        <rect id="Rectangle_2" data-name="Rectangle 2" width="8.367" height="0.109" transform="translate(2.915 38.346)" fill="#bd914b"/>
        <rect id="Rectangle_3" data-name="Rectangle 3" width="8.367" height="0.109" transform="translate(36.109 38.346)" fill="#bd914b"/>
        <path id="Path_43" data-name="Path 43" d="M165.393,28.9a2.124,2.124,0,0,0-.655-1.657,2.809,2.809,0,0,0-1.943-.593,4.73,4.73,0,0,0-1.585.286,7.243,7.243,0,0,0-1.626.839l-.961-1.513a12.557,12.557,0,0,1,1.432-.778,7.045,7.045,0,0,1,1.441-.471,8.8,8.8,0,0,1,1.81-.163,4.714,4.714,0,0,1,3.242,1.012,3.611,3.611,0,0,1,1.155,2.792l.02,7.138h-2.311V34.486a3.325,3.325,0,0,1-1.1.879,5.432,5.432,0,0,1-2.5.532,4.3,4.3,0,0,1-2.025-.45,3.334,3.334,0,0,1-1.33-1.217,3.2,3.2,0,0,1-.471-1.707,2.885,2.885,0,0,1,1.074-2.352,4.754,4.754,0,0,1,3.037-.9h3.293Zm-2.945,2.045a3.252,3.252,0,0,0-1.7.348,1.249,1.249,0,0,0-.552,1.145,1.468,1.468,0,0,0,.562,1.207,2.408,2.408,0,0,0,1.545.449,3.869,3.869,0,0,0,1.574-.306,2.771,2.771,0,0,0,1.1-.839,1.966,1.966,0,0,0,.41-1v-1Z" transform="translate(-155.16 -6.93)" fill="#025d4d"/>
        <path id="Path_44" data-name="Path 44" d="M173.348,24.958l8.938.02v1.513l-6.218,7.526h6.4v1.821l-9.305-.02V34.305l6.217-7.526-6.033-.021Z" transform="translate(-158.473 -6.953)" fill="#025d4d"/>
        <path id="Path_45" data-name="Path 45" d="M188,24.935h2.332v2.086a3.706,3.706,0,0,1,1.513-1.616,5.051,5.051,0,0,1,2.433-.553,4.227,4.227,0,0,1,2.137.511A3.536,3.536,0,0,1,197.8,26.8a4.662,4.662,0,0,1,.245.654l.123-.245a3.667,3.667,0,0,1,1.585-1.789,5.034,5.034,0,0,1,2.444-.563,4.232,4.232,0,0,1,2.137.511,3.461,3.461,0,0,1,1.37,1.442,4.839,4.839,0,0,1,.481,2.24V35.8h-2.352V29.66a2.819,2.819,0,0,0-.686-2.014,2.476,2.476,0,0,0-1.892-.726,2.756,2.756,0,0,0-2.188,1.043,3.847,3.847,0,0,0-.8,2.475V35.8h-2.352V29.66a2.846,2.846,0,0,0-.675-2.014,2.443,2.443,0,0,0-1.882-.726,2.809,2.809,0,0,0-2.219,1.043,3.817,3.817,0,0,0-.808,2.475V35.8H188Z" transform="translate(-161.711 -6.93)" fill="#025d4d"/>
        <path id="Path_46" data-name="Path 46" d="M158.56,20.336q-.074-.61-.157-1.358t-.167-1.516q-.083-.767-.129-1.4t-.046-1.026a4.588,4.588,0,0,1,.231-1.478,4.006,4.006,0,0,1,.647-1.211,2.985,2.985,0,0,1,1-.822,2.764,2.764,0,0,1,1.266-.3,8.849,8.849,0,0,1,1.081.092q.693.094,1.57.241t1.839.314q.2.055.425.092.074-.222.13-.444a3.088,3.088,0,0,0,.221-1.143,3.618,3.618,0,0,0-.443-2.014,1.471,1.471,0,0,0-1.294-.646,2,2,0,0,0-1.007.268,3.612,3.612,0,0,0-.989.923,9.235,9.235,0,0,0-.844,1.313l-1.982-.546q.424-.739.905-1.459A9.277,9.277,0,0,1,161.867,6.9a4.877,4.877,0,0,1,1.275-.952,3.435,3.435,0,0,1,1.589-.36,3.2,3.2,0,0,1,1.673.416,3.278,3.278,0,0,1,1.118,1.109,5.121,5.121,0,0,1,.619,1.542,7.722,7.722,0,0,1,.194,1.719,5.823,5.823,0,0,1-.259,1.559,7.786,7.786,0,0,1-.85,2.227q-.886-.185-1.81-.36t-1.756-.314q-.831-.138-1.45-.222a7.614,7.614,0,0,0-.9-.083,1.626,1.626,0,0,0-.739.176,1.379,1.379,0,0,0-.582.591,2.349,2.349,0,0,0-.231,1.137q0,.332.055.97t.139,1.413q.083.776.175,1.534c.062.5-1.57,1.33-1.57,1.33" transform="translate(-155.176 -2.726)" fill="#025d4d"/>
      </g>
    </g>
    <g id="Group_4" data-name="Group 4" transform="translate(0 0)">
      <g id="Group_3" data-name="Group 3" clip-path="url(#clip-path-2)">
        <path id="Path_47" data-name="Path 47" d="M80.832,11.948a5.17,5.17,0,0,0-1.319-2.182,6.652,6.652,0,0,0-2.59-1.507,13.12,13.12,0,0,0-4.191-.565H63.656v.129a4.015,4.015,0,0,1,1.322,3.346h0V28.85h3.736V10.833h3.955a9.166,9.166,0,0,1,2.339.251,3.751,3.751,0,0,1,1.476.723,2.5,2.5,0,0,1,.769,1.176,5.573,5.573,0,0,1,.22,1.649,6,6,0,0,1-.2,1.632,2.737,2.737,0,0,1-.738,1.24,3.539,3.539,0,0,1-1.46.8,8.282,8.282,0,0,1-2.369.283H71.289l-1.322,3.171h2.827a12.409,12.409,0,0,0,4.113-.581,6.62,6.62,0,0,0,2.59-1.57A5.4,5.4,0,0,0,80.832,17.3a10.012,10.012,0,0,0,.377-2.763,8.87,8.87,0,0,0-.377-2.59" transform="translate(-13.896 -1.68)" fill="#025d4d"/>
        <path id="Path_48" data-name="Path 48" d="M89.81,7.691v.129a4.015,4.015,0,0,1,1.322,3.346V28.847h3.8V7.678l-3.8.013Z" transform="translate(-19.605 -1.676)" fill="#025d4d"/>
        <path id="Path_49" data-name="Path 49" d="M116.367,10.959l1.322-3.265H102.051v.129a4.014,4.014,0,0,1,1.323,3.346V28.85h3.8V20.6h7.446l1.322-3.264h-8.768V10.959Z" transform="translate(-22.277 -1.68)" fill="#025d4d"/>
        <rect id="Rectangle_5" data-name="Rectangle 5" width="24.266" height="0.353" transform="translate(51.059 31.571)" fill="#c1964d"/>
        <path id="Path_50" data-name="Path 50" d="M101.334,40.709a.353.353,0,0,1,0,.064h-.437a.54.54,0,0,1-.564-.578.557.557,0,0,1,.582-.59h.423Zm-1.574-.5a.941.941,0,0,0,1.012.945h.485a.894.894,0,0,1-.882.5c-.514,0-1.017-.256-1.017-.8v-.428l-.574.116v.244c0,.872.757,1.253,1.557,1.253.847,0,1.56-.385,1.56-1.3V39.221h-.983a1.032,1.032,0,0,0-1.158.992" transform="translate(-21.565 -8.562)" fill="#c1964d"/>
        <path id="Path_51" data-name="Path 51" d="M101.075,38.489a.263.263,0,1,0-.261-.261.265.265,0,0,0,.261.261" transform="translate(-22.007 -8.287)" fill="#c1964d"/>
        <path id="Path_52" data-name="Path 52" d="M101.983,38.489a.263.263,0,1,0-.261-.261.262.262,0,0,0,.261.261" transform="translate(-22.206 -8.287)" fill="#c1964d"/>
        <path id="Path_53" data-name="Path 53" d="M104.985,40.773h-.44a.539.539,0,0,1-.565-.574.561.561,0,0,1,.586-.594h.419Zm-1.574-.557a.939.939,0,0,0,1.014.941h.552c-.043.4-.261.556-.7.556h-.324v.36h.419c.757,0,1.184-.287,1.184-1.147V39.221h-.983a1.036,1.036,0,0,0-1.159,1" transform="translate(-22.574 -8.562)" fill="#c1964d"/>
        <path id="Path_54" data-name="Path 54" d="M113.215,38.676a.291.291,0,0,0,.291-.291.291.291,0,1,0-.582,0,.288.288,0,0,0,.291.291" transform="translate(-24.651 -8.316)" fill="#c1964d"/>
        <path id="Path_55" data-name="Path 55" d="M117.425,40.772h-1.933v-.928h1.359a.506.506,0,0,1,.574.5Zm-.522-1.309H115.61l-.119.256v-.428l-.569.107v1.373H112.45l0,0,0,0h-.334V39.357l-.568.111v1.3h-3.063v-.6c0-.667-.368-.958-1.04-.958h-.521v.38h.381c.41,0,.611.141.611.5v.671h-1.232v.385h4.859a.554.554,0,0,0,.449-.2l.138.2h.32l0,0,0,0h5.543v-.74c0-.684-.517-.954-1.09-.954" transform="translate(-23.288 -8.561)" fill="#c1964d"/>
        <path id="Path_56" data-name="Path 56" d="M66.084,45.753a.263.263,0,1,0-.261-.261.266.266,0,0,0,.261.261" transform="translate(-14.369 -9.873)" fill="#c1964d"/>
        <path id="Path_57" data-name="Path 57" d="M66.991,45.753a.263.263,0,1,0-.261-.261.262.262,0,0,0,.261.261" transform="translate(-14.567 -9.873)" fill="#c1964d"/>
        <path id="Path_58" data-name="Path 58" d="M66.306,47.931a.513.513,0,0,1,0-1.026h.521V47.7a.706.706,0,0,0,.038.235Zm3.086-1.539h-.727l-.243.9c-.1.41-.219.637-.6.637H67.4V46.272l-.568.115v.133h-.654a.9.9,0,1,0,0,1.8h.555l.184-.282a.6.6,0,0,0,.534.282h.41a1.067,1.067,0,0,0,1.137-.95l.141-.59h.26a.559.559,0,0,1,.578.586v.568H68.759l.27.385h1.513V47.4a1.035,1.035,0,0,0-1.151-1.005" transform="translate(-14.241 -10.101)" fill="#c1964d"/>
        <path id="Path_59" data-name="Path 59" d="M76.574,47.538a2.509,2.509,0,0,1-.659-.808c-.016-.026-.077-.1-.128-.167a2.339,2.339,0,0,1,.642-.124c.36,0,.607.2.607.5a.644.644,0,0,1-.462.595m2.9.073H77.77l0,0v0h-.612a1,1,0,0,0,.446-.775c0-.414-.36-.782-1.057-.782a3.211,3.211,0,0,0-1.052.213l-.193.274.03.021-.03.009.086.193a3.98,3.98,0,0,0,.574.847h-2.69V44.8l-.569.112v2.511a.541.541,0,0,0,.574.572h2.578a1.887,1.887,0,0,0,.632-.141,1.276,1.276,0,0,0,.535.141h3.029V44.8l-.569.107Z" transform="translate(-15.87 -9.78)" fill="#c1964d"/>
        <path id="Path_60" data-name="Path 60" d="M82.953,48h.568V44.8l-.568.111Z" transform="translate(-18.108 -9.78)" fill="#c1964d"/>
        <path id="Path_61" data-name="Path 61" d="M88.284,46.607a.263.263,0,1,0-.261-.261.262.262,0,0,0,.261.261" transform="translate(-19.215 -10.06)" fill="#c1964d"/>
        <path id="Path_62" data-name="Path 62" d="M87.376,46.607a.263.263,0,1,0-.261-.261.265.265,0,0,0,.261.261" transform="translate(-19.017 -10.06)" fill="#c1964d"/>
        <path id="Path_63" data-name="Path 63" d="M88.526,48H86.61c-.4,0-.518-.145-.518-.557v-.4l-.568.111v.171c0,.753.36,1.056,1.018,1.056h2.553v-1.8l-.568.111Z" transform="translate(-18.669 -10.169)" fill="#c1964d"/>
        <path id="Path_64" data-name="Path 64" d="M90.943,48h.569V44.8l-.569.111Z" transform="translate(-19.853 -9.78)" fill="#c1964d"/>
        <path id="Path_65" data-name="Path 65" d="M92.387,48.54a.516.516,0,0,1-.509.578l.128.355a.954.954,0,0,0,.95-1.056V46.59l-.569.111Z" transform="translate(-20.057 -10.171)" fill="#c1964d"/>
        <path id="Path_66" data-name="Path 66" d="M103.323,45.878a.263.263,0,1,0-.261-.261.266.266,0,0,0,.261.261" transform="translate(-22.498 -9.901)" fill="#c1964d"/>
        <path id="Path_67" data-name="Path 67" d="M103.76,45.107a.263.263,0,1,0-.261-.261.262.262,0,0,0,.261.261" transform="translate(-22.594 -9.732)" fill="#c1964d"/>
        <path id="Path_68" data-name="Path 68" d="M103.97,45.618a.261.261,0,1,0,.261-.265.262.262,0,0,0-.261.265" transform="translate(-22.696 -9.901)" fill="#c1964d"/>
        <path id="Path_69" data-name="Path 69" d="M107.268,45.878a.263.263,0,1,0-.261-.261.265.265,0,0,0,.261.261" transform="translate(-23.359 -9.901)" fill="#c1964d"/>
        <path id="Path_70" data-name="Path 70" d="M108.176,45.878a.263.263,0,1,0-.261-.261.262.262,0,0,0,.261.261" transform="translate(-23.558 -9.901)" fill="#c1964d"/>
        <path id="Path_71" data-name="Path 71" d="M110.534,47.61h-.714a.64.64,0,0,0,.026-.188v-1.1l-.569.111V47.61h-.795V46.331l-.574.107V47.61H105.4V46.195l-.569.111v1.3h-2.524V46.195l-.568.111v1.3h-2.6v-.535a1.035,1.035,0,0,0-1.151-1h-.727l-.244.9c-.1.41-.218.637-.6.637h-.094c-.008,0-.007.009-.013.013s0-.013-.009-.013H94.579V44.8l-.569.112v2.511a.541.541,0,0,0,.574.572h1.723c.005,0,0-.009.009-.012s0,.012.013.012h.128a1.065,1.065,0,0,0,1.137-.949l.141-.59H98a.559.559,0,0,1,.578.586v.568H97.359l.27.385h4.107a.556.556,0,0,0,.449-.2l.138.2h2.507a.557.557,0,0,0,.449-.2l.137.2h3.858a.564.564,0,0,0,.457-.2l.141.2H111.1v-1.8l-.568.111Z" transform="translate(-20.522 -9.78)" fill="#c1964d"/>
        <path id="Path_72" data-name="Path 72" d="M118.3,47.61h-.778V45.326l-.569.116V47.61H116.4v.385h2.463V44.8l-.568.107Z" transform="translate(-25.411 -9.78)" fill="#c1964d"/>
        <path id="Path_73" data-name="Path 73" d="M120.408,44.911V48h.568V44.8Z" transform="translate(-26.285 -9.78)" fill="#c1964d"/>
        <path id="Path_74" data-name="Path 74" d="M21.29,2.768A19.693,19.693,0,1,0,40.984,22.461,19.693,19.693,0,0,0,21.29,2.768m21.29,19.693A21.29,21.29,0,1,1,21.29,1.171a21.29,21.29,0,0,1,21.29,21.29" transform="translate(0 -0.256)" fill="#025d4d"/>
        <path id="Path_75" data-name="Path 75" d="M23.092,38.463a14.2,14.2,0,1,1,14.2-14.2,14.2,14.2,0,0,1-14.2,14.2m0-29.04A14.839,14.839,0,1,0,37.931,24.262,14.839,14.839,0,0,0,23.092,9.423" transform="translate(-1.802 -2.057)" fill="#025d4d"/>
        <path id="Path_76" data-name="Path 76" d="M49.948,24.773l-2.254.422-.087-.514,2.253-.424Z" transform="translate(-10.392 -5.296)" fill="#025d4d"/>
        <path id="Path_77" data-name="Path 77" d="M49.813,32.6l-2.267-.385.095-.513,2.26.382Z" transform="translate(-10.379 -6.92)" fill="#025d4d"/>
        <path id="Path_78" data-name="Path 78" d="M49.364,30.363c.242.027.414-.07.435-.27.02-.179-.1-.322-.353-.349-.242-.027-.4.085-.415.261l-.034.32Zm-1.6.353.055-.516.83.087.048-.449a.661.661,0,0,1,.776-.622.747.747,0,0,1,.676.921.758.758,0,0,1-.936.732Z" transform="translate(-10.427 -6.377)" fill="#025d4d"/>
        <path id="Path_79" data-name="Path 79" d="M49.349,26.275l.022.381.789-.045.03.52-.789.045.021.369.762-.044.03.517-1.109.064L49,26.3l-1.179.068-.03-.52,2.293-.133.03.52Z" transform="translate(-10.433 -5.613)" fill="#025d4d"/>
        <path id="Path_80" data-name="Path 80" d="M6.087,25.519,3.9,25.19l.077-.511,1.416.214.06-.4.378.057-.009.059a.38.38,0,0,0,.071.3.553.553,0,0,0,.255.181Z" transform="translate(-0.852 -5.348)" fill="#025d4d"/>
        <path id="Path_81" data-name="Path 81" d="M4.975,26.749a.28.28,0,0,0-.106.209.284.284,0,0,0,.086.22.371.371,0,0,0,.26.1.379.379,0,0,0,.271-.074A.286.286,0,0,0,5.593,27a.283.283,0,0,0-.081-.22.461.461,0,0,0-.537-.029M4.6,26.5a.667.667,0,0,1,.261-.239.733.733,0,0,1,.391-.077.782.782,0,0,1,.436.14.705.705,0,0,1,.242.307A.893.893,0,0,1,5.988,27a.707.707,0,0,1-.332.621,1.56,1.56,0,0,1-.863.148,1.356,1.356,0,0,1-.872-.271.848.848,0,0,1-.045-1.1.72.72,0,0,1,.438-.235l.043.491q-.256.04-.266.242a.26.26,0,0,0,.145.265.971.971,0,0,0,.41.1v-.011a.536.536,0,0,1-.122-.2.631.631,0,0,1-.031-.241.656.656,0,0,1,.1-.314" transform="translate(-0.807 -5.712)" fill="#025d4d"/>
        <path id="Path_82" data-name="Path 82" d="M5.9,28.529l.088,1.6-.479.026-1.775-.806-.034-.6,1.778.835-.056-1.026Z" transform="translate(-0.809 -6.228)" fill="#025d4d"/>
        <path id="Path_83" data-name="Path 83" d="M6.222,31.8l-2.184.328-.077-.511,1.416-.212-.059-.4.378-.056.009.059a.381.381,0,0,0,.157.268.55.55,0,0,0,.3.1Z" transform="translate(-0.865 -6.757)" fill="#025d4d"/>
        <path id="Path_84" data-name="Path 84" d="M46.521,15.391a.261.261,0,0,0,.063-.367.264.264,0,0,0-.368-.065.267.267,0,0,0-.063.371.263.263,0,0,0,.369.06" transform="translate(-10.064 -3.255)" fill="#025d4d"/>
        <path id="Path_85" data-name="Path 85" d="M45.906,18.236l-.235.118q-.294-.658-.643-1.284l.509-.315.474.976c.113.222.069.417-.1.5m.46-.636-.449-.938-.274.031.33-.2-.291-.469-.936.562c-.116-.193-.237-.385-.361-.573l.907-.641-.325-.46-.9.636c-.126-.177-.253-.352-.386-.524l.276-.227a.74.74,0,0,0,.062-1.191l-.249-.3-.281.251.152.183c.213.259.2.422.016.578l-.327.271c-.194-.235-.392-.467-.6-.69l-.277.254a16.35,16.35,0,0,1,1.306,1.617l0,0a.545.545,0,0,0,.4.254l-.073.225h0a16.1,16.1,0,0,1,1.469,2.795l.528-.267a.79.79,0,0,0,.278-1.175" transform="translate(-9.269 -2.904)" fill="#025d4d"/>
        <path id="Path_86" data-name="Path 86" d="M40.614,9.922a.238.238,0,1,1,.332-.045.236.236,0,0,1-.332.045m-.486-.366a.238.238,0,1,1,.334-.045.237.237,0,0,1-.334.045m-.227.726a.4.4,0,0,0-.476.637l.2.156.027-.036.453-.6Zm.886.193-.718.952a1.105,1.105,0,0,1-1.662.066c-.518-.391-.852-1.015-.413-1.6l.178-.231.45.34-.214.284a.654.654,0,0,0,.247.921.669.669,0,0,0,.692.12l-.256-.193a.749.749,0,0,1-.2-1.085.839.839,0,0,1,1.237-.069Z" transform="translate(-8.25 -1.993)" fill="#025d4d"/>
        <path id="Path_87" data-name="Path 87" d="M41.753,12.968l.55-.569-.186-.181a.4.4,0,0,0-.548.572Zm1.215-.449-.921.955c-.512.53-.933.417-1.38-.014l-.218-.211L40.692,13l.155.149c.228.22.414.267.638.084l-.274-.265a.746.746,0,0,1-.063-1.1.835.835,0,0,1,1.231.084Z" transform="translate(-8.83 -2.539)" fill="#025d4d"/>
        <path id="Path_88" data-name="Path 88" d="M17.274,8.23a.237.237,0,1,0-.317-.1.236.236,0,0,0,.317.1" transform="translate(-3.696 -1.699)" fill="#025d4d"/>
        <path id="Path_89" data-name="Path 89" d="M16.586,8.583a.237.237,0,1,0-.317-.1.236.236,0,0,0,.317.1" transform="translate(-3.545 -1.776)" fill="#025d4d"/>
        <path id="Path_90" data-name="Path 90" d="M26.741,5.073a.237.237,0,1,0,.231-.243.237.237,0,0,0-.231.243" transform="translate(-5.837 -1.055)" fill="#025d4d"/>
        <path id="Path_91" data-name="Path 91" d="M26.2,5.316a.237.237,0,1,0-.239-.232.237.237,0,0,0,.239.232" transform="translate(-5.668 -1.057)" fill="#025d4d"/>
        <path id="Path_92" data-name="Path 92" d="M28.733,5.357a.238.238,0,1,0-.221-.249.237.237,0,0,0,.221.249" transform="translate(-6.224 -1.066)" fill="#025d4d"/>
        <path id="Path_93" data-name="Path 93" d="M27.96,5.31a.237.237,0,1,0-.221-.249.235.235,0,0,0,.221.249" transform="translate(-6.055 -1.056)" fill="#025d4d"/>
        <path id="Path_94" data-name="Path 94" d="M18.58,8.834,18.023,7.46l-.439.177.424,1.045c-.571.248-1.177.573-1.474.742-.23.131-.349.093-.473-.134l-.17-.313-.492.267.111.2a.731.731,0,0,0,1.13.327h0a16.064,16.064,0,0,1,1.938-.941" transform="translate(-3.362 -1.629)" fill="#025d4d"/>
        <path id="Path_95" data-name="Path 95" d="M23.51,6.966a1.482,1.482,0,0,0,.116-.378l.05-.44.145-.018a.374.374,0,0,1,.428.354l.048.385c-.264.027-.527.059-.788.1m5.519.485a.536.536,0,0,0,.471-.108l.1.228q.474.108.936.243L30.91,6.38l-.546-.142L30.086,7.3q-.232-.059-.467-.112a.659.659,0,0,0,.063-.176l.156-.763-.552-.113-.193.943q-.28-.054-.564-.1l.133-.928-.557-.08-.134.93c-.206-.024-.465-.051-.673-.068l.09-1.1-.56-.046L26.734,6.8c-.231-.01-.462-.017-.7-.018l.005-1.108-.56,0L25.474,6.79c-.207.006-.413.017-.618.03l-.047-.375a.843.843,0,0,0-1.04-.691l-.655.1-.056.736c-.041.295-.119.474-.353.514l-.272.057-.5-1.981-.546.129.458,1.8a.523.523,0,0,0,.663.412h0c.094-.02.188-.039.282-.058a.912.912,0,0,0,.682-.429l.264.27a16.5,16.5,0,0,1,1.77-.144h0a.511.511,0,0,0,.41-.2l.164.192v0c.22,0,.438.009.655.02a.568.568,0,0,0,.449-.167l.123.2a16.516,16.516,0,0,1,1.718.235" transform="translate(-4.669 -1.132)" fill="#025d4d"/>
        <path id="Path_96" data-name="Path 96" d="M36.223,6.636l-.517-.224-.782,1.881c-.163-.068-.329-.133-.5-.2l.535-1.575-.531-.189L33.9,7.908c-.132-.045-.263-.088-.4-.13l-.1.362a15.975,15.975,0,0,1,1.895.725Z" transform="translate(-7.291 -1.383)" fill="#025d4d"/>
        <path id="Path_97" data-name="Path 97" d="M19.308,5.926l.858,2.258-.53.191-.858-2.255Z" transform="translate(-4.099 -1.294)" fill="#025d4d"/>
        <path id="Path_98" data-name="Path 98" d="M37.826,7.257,36.775,9.428l-.5-.256L37.323,7Z" transform="translate(-7.918 -1.529)" fill="#025d4d"/>
        <path id="Path_99" data-name="Path 99" d="M5.895,18.647a.237.237,0,1,0,.116.316.238.238,0,0,0-.116-.316" transform="translate(-1.213 -4.066)" fill="#025d4d"/>
        <path id="Path_100" data-name="Path 100" d="M6.219,17.94a.237.237,0,1,0,.115.316.237.237,0,0,0-.115-.316" transform="translate(-1.284 -3.912)" fill="#025d4d"/>
        <path id="Path_101" data-name="Path 101" d="M8.6,16.991l-.027.042a1.6,1.6,0,0,0-.242-.341c-.077-.083-.307-.341-.307-.341l.078-.124a.376.376,0,0,1,.546-.1l.363.228c-.142.209-.279.424-.411.639m-.94,1.762a.338.338,0,0,1-.612-.288l.137-.292.424.22a.684.684,0,0,0,.188.069Zm1.978-2.676h0c-.055-.032-.273-.159-.663-.41a.85.85,0,0,0-1.2.362l-.32.509.513.577c.2.217.313.395.2.607l-.011.02-.031.058-.1.182L6.9,17.392l-.259.5.192.1-.2.39a.714.714,0,0,0,.295,1,.73.73,0,0,0,1-.352l.021-.048.083-.181.06-.131-.118-.229a.541.541,0,0,0,.365-.267c.039-.077.166-.313.166-.313a.864.864,0,0,0,.1-.76l.383-.065,0,0q.307-.491.647-.958h0" transform="translate(-1.427 -3.392)" fill="#025d4d"/>
        <path id="Path_102" data-name="Path 102" d="M10.4,12.637a1.5,1.5,0,0,1,.224-.334.357.357,0,0,1,.533-.064.437.437,0,0,1,.093.467,5.324,5.324,0,0,1-.85-.069m.706.855a1.679,1.679,0,0,0,.3-.5.921.921,0,0,0,.433-.253,11.594,11.594,0,0,1,1.157-1.022l-1.5-1.89-.436.357L12.334,11.8q-.348.3-.679.618h0a.782.782,0,0,0-.2-.657c-.23-.22-.634-.218-1.03.2a2.762,2.762,0,0,0-.467.717s.06.269.064.289.075.063.128.078.57.11.761.128q-.366.4-.706.822l0,0L8.6,12.707l-.345.442,1.438,1.158a.526.526,0,0,0,.785-.087c.2-.249.41-.492.624-.729" transform="translate(-1.802 -2.145)" fill="#025d4d"/>
        <path id="Path_103" data-name="Path 103" d="M13.328,9.022l1.4,1.967-.453.333-1.4-1.968Z" transform="translate(-2.811 -1.97)" fill="#025d4d"/>
        <path id="Path_104" data-name="Path 104" d="M6.792,37.2a.292.292,0,0,0,.162.167.359.359,0,0,0,.4-.182.291.291,0,0,0-.019-.231l-.16-.355-.546.248Zm1.037.213a.775.775,0,0,1-.428.4.773.773,0,0,1-.586.056.7.7,0,0,1-.4-.4l-.2-.437-.672.3-.209-.464,2.052-.929.407.9a.7.7,0,0,1,.037.567" transform="translate(-1.164 -7.846)" fill="#025d4d"/>
        <path id="Path_105" data-name="Path 105" d="M7.779,40.625a.718.718,0,0,1-.416-.115,1.045,1.045,0,0,1-.324-.342.915.915,0,0,1-.145-.666.848.848,0,0,1,.432-.55l1.214-.743.266.435-1.166.713q-.393.24-.2.563T8.037,40L9.2,39.291l.267.435-1.214.743a.963.963,0,0,1-.475.157" transform="translate(-1.502 -8.341)" fill="#025d4d"/>
        <path id="Path_106" data-name="Path 106" d="M9.855,41.83a.228.228,0,0,0,.156.095.279.279,0,0,0,.268-.217.224.224,0,0,0-.057-.172l-.3-.372-.367.295Zm-.675.585a.241.241,0,0,0,.167.1.255.255,0,0,0,.182-.065.264.264,0,0,0,.106-.166A.243.243,0,0,0,9.57,42.1l-.32-.4-.39.314Zm1.612-.609a.587.587,0,0,1-.237.4.522.522,0,0,1-.252.118.466.466,0,0,1-.25-.031l-.01.008a.549.549,0,0,1-.014.3.587.587,0,0,1-.2.265.684.684,0,0,1-.492.179.628.628,0,0,1-.435-.259L8.189,41.9l1.755-1.412.689.856a.62.62,0,0,1,.158.458" transform="translate(-1.788 -8.84)" fill="#025d4d"/>
        <path id="Path_107" data-name="Path 107" d="M10.1,44.132l1.575-1.61.364.356-1.229,1.256.73.714-.346.354Z" transform="translate(-2.204 -9.283)" fill="#025d4d"/>
        <rect id="Rectangle_6" data-name="Rectangle 6" width="2.253" height="0.509" transform="translate(9.272 36.15) rotate(-49.983)" fill="#025d4d"/>
        <path id="Path_108" data-name="Path 108" d="M14.643,47.388a.9.9,0,0,1-.447.066.945.945,0,0,1-.447-.171,1.028,1.028,0,0,1-.359-.417.965.965,0,0,1-.073-.543,1.415,1.415,0,0,1,.25-.6,1.4,1.4,0,0,1,.471-.444.952.952,0,0,1,.535-.124,1.03,1.03,0,0,1,.516.188.95.95,0,0,1,.317.353.909.909,0,0,1,.1.427.958.958,0,0,1-.09.411l-.463-.227a.5.5,0,0,0,.039-.317.4.4,0,0,0-.175-.258.461.461,0,0,0-.251-.081.526.526,0,0,0-.29.085,1.1,1.1,0,0,0-.447.646.526.526,0,0,0,.023.3.454.454,0,0,0,.164.206.39.39,0,0,0,.308.07.586.586,0,0,0,.3-.183l.393.337a1.1,1.1,0,0,1-.381.27" transform="translate(-2.905 -9.858)" fill="#025d4d"/>
        <rect id="Rectangle_7" data-name="Rectangle 7" width="2.253" height="0.509" transform="translate(12.683 38.484) rotate(-62.848)" fill="#025d4d"/>
        <path id="Path_109" data-name="Path 109" d="M19.13,49.951l-.531-.212L18.44,48.1l-.01,0-.543,1.363-.431-.172.834-2.092.54.216.161,1.609.01,0,.532-1.333.431.172Z" transform="translate(-3.811 -10.302)" fill="#025d4d"/>
        <path id="Path_110" data-name="Path 110" d="M22.854,48.626l-1.226,2.013-.6-.152-.113-2.352.531.134.034,1.7.01,0,.84-1.483Z" transform="translate(-4.566 -10.508)" fill="#025d4d"/>
        <path id="Path_111" data-name="Path 111" d="M23.988,49.729l.947.12-.056.438-.947-.12-.058.457,1,.127-.06.469-1.5-.191.284-2.234,1.5.191-.057.453-1-.127Z" transform="translate(-5.088 -10.652)" fill="#025d4d"/>
        <path id="Path_112" data-name="Path 112" d="M26.9,49.528a.349.349,0,0,0-.238-.083.34.34,0,0,0-.214.058.194.194,0,0,0-.082.156.146.146,0,0,0,.059.127.542.542,0,0,0,.18.079l.31.093a2.14,2.14,0,0,1,.332.128.541.541,0,0,1,.212.209.724.724,0,0,1,.082.389.6.6,0,0,1-.247.52,1.007,1.007,0,0,1-.611.163.967.967,0,0,1-.618-.206.757.757,0,0,1-.271-.56l.5-.052a.385.385,0,0,0,.122.28.421.421,0,0,0,.274.1.4.4,0,0,0,.233-.058.2.2,0,0,0,.093-.17.179.179,0,0,0-.063-.154.775.775,0,0,0-.228-.1l-.28-.09a1.849,1.849,0,0,1-.306-.124.514.514,0,0,1-.2-.194.643.643,0,0,1-.076-.349.61.61,0,0,1,.233-.5.914.914,0,0,1,.588-.169.835.835,0,0,1,.548.19.786.786,0,0,1,.258.52l-.489.03a.342.342,0,0,0-.1-.226" transform="translate(-5.63 -10.7)" fill="#025d4d"/>
        <path id="Path_113" data-name="Path 113" d="M29.914,49.372l-.619.059.167,1.749-.507.048-.167-1.749-.619.059-.047-.493,1.746-.167Z" transform="translate(-6.139 -10.67)" fill="#025d4d"/>
        <path id="Path_114" data-name="Path 114" d="M32.7,48.235l.511,2.193-.463.108L32.392,49l-.011,0-.031,1.627L32,50.711l-.747-1.446-.011,0L31.6,50.8l-.452.106-.511-2.193.729-.17.607,1.255.01,0L31.977,48.4Z" transform="translate(-6.689 -10.53)" fill="#025d4d"/>
        <path id="Path_115" data-name="Path 115" d="M34.492,48.564l.893-.339.156.413-.892.339.163.431.94-.357.168.442-1.416.538-.8-2.105,1.416-.539.163.428-.94.358Z" transform="translate(-7.357 -10.345)" fill="#025d4d"/>
        <path id="Path_116" data-name="Path 116" d="M38.55,48.132l-.5.268-1.355-.942-.009,0,.687,1.3-.41.217L35.9,46.987l.514-.273,1.331.919.009,0-.673-1.268.41-.217Z" transform="translate(-7.837 -10.073)" fill="#025d4d"/>
        <path id="Path_117" data-name="Path 117" d="M39.917,45.1l-.509.357,1.01,1.438L40,47.186l-1.01-1.438-.509.357-.285-.4,1.435-1.008Z" transform="translate(-8.338 -9.757)" fill="#025d4d"/>
        <path id="Path_118" data-name="Path 118" d="M41.546,43.679l.338.353.689-.661.3.319-.689.661.6.624-.368.353L40.861,43.7l1.094-1.047.317.331Z" transform="translate(-8.92 -9.311)" fill="#025d4d"/>
        <path id="Path_119" data-name="Path 119" d="M45.032,41.954a.72.72,0,0,1,.027.431,1.036,1.036,0,0,1-.217.418.917.917,0,0,1-.582.355.847.847,0,0,1-.662-.229l-1.1-.9.324-.393,1.055.868q.355.292.6,0t-.114-.587l-1.055-.868.324-.393,1.1.9a.958.958,0,0,1,.3.4" transform="translate(-9.278 -8.874)" fill="#025d4d"/>
        <path id="Path_120" data-name="Path 120" d="M47.054,39.551l-.3.485L45.107,39.9l-.005.009,1.244.776-.246.393-1.91-1.192.308-.494,1.613.128.005-.009L44.9,38.752l.246-.393Z" transform="translate(-9.646 -8.374)" fill="#025d4d"/>
        <path id="Path_121" data-name="Path 121" d="M47.58,37.6a.555.555,0,0,0,.038-.448,1.016,1.016,0,0,0-.946-.427.558.558,0,0,0-.311.324l-.121.269,1.219.55Zm-1.047-1.366a1.467,1.467,0,0,1,1.544.7.975.975,0,0,1-.047.783l-.364.807-2.053-.927.363-.807a.974.974,0,0,1,.557-.553" transform="translate(-9.957 -7.9)" fill="#025d4d"/>
        <path id="Path_122" data-name="Path 122" d="M36.317,28.552v-.028c-4.623-.645-8.834.953-12.6,4.339-3.765-3.386-7.977-4.984-12.6-4.339v.028c4.823.209,8.865,2.7,12.1,5.737a28.882,28.882,0,0,1,2.106,2.178l-.245.209a.514.514,0,1,0,.663.785l.245-.208c.161.195.306.375.368.458,0,0,.513.767,1.037,1.5,1.278,1.791,2.921,1.1,3.078.206.158-.93-.688-1.321-1.378-1.216a.974.974,0,0,1-.288-.045A7.144,7.144,0,0,1,26.987,36.4L27.469,36a.514.514,0,1,0-.663-.785l-.458.388q-.794-.95-1.624-1.783c2.787-2.494,6.77-5.054,11.593-5.264" transform="translate(-2.427 -6.196)" fill="#c1964d"/>
        <path id="Path_123" data-name="Path 123" d="M28.256,15.628l2.872.274c-.281-1.09-1.528-1.527-2.789-1.37a3.348,3.348,0,0,1,2.276-.6c-.85-.951-1.916-.99-3.209-.41l1.132-1.144a1.945,1.945,0,0,0-2.283.781,4.033,4.033,0,0,0-.526-1.728,4.033,4.033,0,0,0-.526,1.728,1.945,1.945,0,0,0-2.283-.781l1.132,1.144c-1.293-.58-2.359-.541-3.209.41a3.346,3.346,0,0,1,2.276.6c-1.26-.157-2.508.28-2.789,1.37l2.872-.274a2.606,2.606,0,0,0-2.257,2.455l2.938-1.509c-.889.619-1.283,2.487-.628,3.246a14.22,14.22,0,0,1,1.759-2.748,37.834,37.834,0,0,1-.085,8.037l-.248.333a17.11,17.11,0,0,0-2.129.154V25.6c.353.193.708.41,1.045.628a8.287,8.287,0,0,1,3.258.124,10.934,10.934,0,0,0-2.548.357l0,0c.463.327.836.614,1.03.772a.651.651,0,0,0,.79,0,21.147,21.147,0,0,1,2.783-1.88V25.6a17.133,17.133,0,0,0-2.129-.154l-.248-.333a37.887,37.887,0,0,1-.085-8.037A14.22,14.22,0,0,1,28.2,19.821c.655-.758.26-2.627-.628-3.246l2.938,1.509a2.605,2.605,0,0,0-2.257-2.455" transform="translate(-4.438 -2.497)" fill="#c1964d"/>
        <path id="Path_124" data-name="Path 124" d="M23.743,38.127c.261-.32.676-.763,1.1-1.2-.176-.173-.344-.335-.489-.471q-.253-.238-.516-.47-.572.606-1.126,1.269l-.459-.388a.514.514,0,0,0-.664.786l.482.408a7.167,7.167,0,0,1-1.81,1.751,1.013,1.013,0,0,1-.288.045c-.69-.1-1.536.285-1.378,1.216.156.891,1.8,1.584,3.078-.206.524-.733,1.036-1.5,1.036-1.5.063-.083.208-.263.368-.458l.245.207a.514.514,0,0,0,.664-.785Z" transform="translate(-4.056 -7.857)" fill="#c1964d"/>
        <rect id="Rectangle_8" data-name="Rectangle 8" width="0.28" height="43.495" transform="translate(109.191)" fill="#bf934c"/>
      </g>
    </g>
  </g>
</svg>
